<svg xmlns="http://www.w3.org/2000/svg" viewBox="0 0 192 192" width="192" height="192">
  <defs>
    <linearGradient id="bg" x1="0%" y1="0%" x2="100%" y2="100%">
      <stop offset="0%" style="stop-color:#c084fc"/>
      <stop offset="50%" style="stop-color:#f472b6"/>
      <stop offset="100%" style="stop-color:#fb7185"/>
    </linearGradient>
  </defs>
  <rect width="192" height="192" rx="40" fill="#1a1625"/>
  <!-- Calendar grid -->
  <rect x="28" y="40" width="136" height="112" rx="12" fill="rgba(255,255,255,0.05)" stroke="rgba(255,255,255,0.1)" stroke-width="1"/>
  <!-- Heatmap cells -->
  <rect x="36" y="52" width="14" height="14" rx="3" fill="#ef4444" opacity="0.8"/>
  <rect x="54" y="52" width="14" height="14" rx="3" fill="#f97316" opacity="0.8"/>
  <rect x="72" y="52" width="14" height="14" rx="3" fill="#eab308" opacity="0.8"/>
  <rect x="90" y="52" width="14" height="14" rx="3" fill="#22c55e" opacity="0.8"/>
  <rect x="108" y="52" width="14" height="14" rx="3" fill="#6366f1" opacity="0.8"/>
  <rect x="126" y="52" width="14" height="14" rx="3" fill="rgba(180,160,190,0.12)"/>
  <rect x="144" y="52" width="14" height="14" rx="3" fill="rgba(180,160,190,0.12)"/>

  <rect x="36" y="72" width="14" height="14" rx="3" fill="#eab308" opacity="0.8"/>
  <rect x="54" y="72" width="14" height="14" rx="3" fill="#22c55e" opacity="0.8"/>
  <rect x="72" y="72" width="14" height="14" rx="3" fill="#22c55e" opacity="0.8"/>
  <rect x="90" y="72" width="14" height="14" rx="3" fill="#6366f1" opacity="0.8"/>
  <rect x="108" y="72" width="14" height="14" rx="3" fill="#6366f1" opacity="0.8"/>
  <rect x="126" y="72" width="14" height="14" rx="3" fill="#22c55e" opacity="0.8"/>
  <rect x="144" y="72" width="14" height="14" rx="3" fill="rgba(180,160,190,0.12)"/>

  <rect x="36" y="92" width="14" height="14" rx="3" fill="#f97316" opacity="0.8"/>
  <rect x="54" y="92" width="14" height="14" rx="3" fill="#eab308" opacity="0.8"/>
  <rect x="72" y="92" width="14" height="14" rx="3" fill="#eab308" opacity="0.8"/>
  <rect x="90" y="92" width="14" height="14" rx="3" fill="#22c55e" opacity="0.8"/>
  <rect x="108" y="92" width="14" height="14" rx="3" fill="#6366f1" opacity="0.8"/>
  <rect x="126" y="92" width="14" height="14" rx="3" fill="#6366f1" opacity="0.8"/>
  <rect x="144" y="92" width="14" height="14" rx="3" fill="#22c55e" opacity="0.8"/>

  <rect x="36" y="112" width="14" height="14" rx="3" fill="#eab308" opacity="0.8"/>
  <rect x="54" y="112" width="14" height="14" rx="3" fill="#22c55e" opacity="0.8"/>
  <rect x="72" y="112" width="14" height="14" rx="3" fill="#6366f1" opacity="0.8"/>
  <rect x="90" y="112" width="14" height="14" rx="3" fill="rgba(180,160,190,0.12)"/>
  <rect x="108" y="112" width="14" height="14" rx="3" fill="rgba(180,160,190,0.12)"/>
  <rect x="126" y="112" width="14" height="14" rx="3" fill="rgba(180,160,190,0.12)"/>
  <rect x="144" y="112" width="14" height="14" rx="3" fill="rgba(180,160,190,0.12)"/>

  <!-- Title text -->
  <text x="96" y="176" text-anchor="middle" fill="url(#bg)" font-family="sans-serif" font-size="14" font-weight="bold">情绪日历</text>
</svg>
