<svg xmlns="http://www.w3.org/2000/svg" viewBox="0 0 700 520" width="700" height="520" id="tech-architecture">
<defs>
  <filter id="shadow" x="-4%" y="-4%" width="108%" height="112%">
    <feDropShadow dx="0" dy="2" stdDeviation="3" flood-opacity="0.08"/>
  </filter>
  <marker id="arrow" viewBox="0 0 10 10" refX="9" refY="5" markerWidth="8" markerHeight="8" orient="auto-start-reverse">
    <path d="M 0 0 L 10 5 L 0 10 z" fill="#64748b"/>
  </marker>
  <marker id="arrow-indigo" viewBox="0 0 10 10" refX="9" refY="5" markerWidth="8" markerHeight="8" orient="auto-start-reverse">
    <path d="M 0 0 L 10 5 L 0 10 z" fill="#6366f1"/>
  </marker>
  <marker id="arrow-green" viewBox="0 0 10 10" refX="9" refY="5" markerWidth="8" markerHeight="8" orient="auto-start-reverse">
    <path d="M 0 0 L 10 5 L 0 10 z" fill="#22c55e"/>
  </marker>
  <marker id="arrow-purple" viewBox="0 0 10 10" refX="9" refY="5" markerWidth="8" markerHeight="8" orient="auto-start-reverse">
    <path d="M 0 0 L 10 5 L 0 10 z" fill="#a855f7"/>
  </marker>
</defs>
<style>
  text { font-family: -apple-system, 'Segoe UI', 'Noto Sans SC', sans-serif; }
  .title { font-size: 13px; font-weight: 600; fill: #ffffff; }
  .label { font-size: 11px; font-weight: 500; fill: #1e293b; }
  .label-sm { font-size: 10px; fill: #64748b; }
  .label-white { font-size: 11px; font-weight: 500; fill: #ffffff; }
  .box { rx: 10; ry: 10; filter: url(#shadow); }
  .box-sm { rx: 8; ry: 8; filter: url(#shadow); }
  .section-title { font-size: 14px; font-weight: 700; fill: #1e293b; }
</style>
<text x="350" y="24" text-anchor="middle" class="section-title">系统架构总览</text><rect x="30" y="50" width="640" height="70" fill="#6366f1" class="box"/><text x="350" y="72" text-anchor="middle" class="label-white">用户界面 (React 19)</text><rect x="80" y="90" width="110" height="24" fill="#4338ca" class="box-sm"/><text x="135" y="106" text-anchor="middle" class="label-white">首页</text><rect x="230" y="90" width="110" height="24" fill="#4338ca" class="box-sm"/><text x="285" y="106" text-anchor="middle" class="label-white">记录</text><rect x="380" y="90" width="110" height="24" fill="#4338ca" class="box-sm"/><text x="435" y="106" text-anchor="middle" class="label-white">统计</text><rect x="530" y="90" width="110" height="24" fill="#4338ca" class="box-sm"/><text x="585" y="106" text-anchor="middle" class="label-white">设置</text><rect x="100" y="130" width="500" height="28" fill="#f1f5f9" class="box"/><text x="350" y="148" text-anchor="middle" class="label-sm">ErrorBoundary (全局错误捕获)</text><rect x="30" y="170" width="640" height="110" fill="#a855f7" class="box"/><text x="350" y="188" text-anchor="middle" class="label-white">共享服务层</text><rect x="50" y="200" width="110" height="28" fill="#7c3aed" class="box-sm"/><text x="105" y="218" text-anchor="middle" class="label-white">Storage</text><rect x="180" y="200" width="110" height="28" fill="#7c3aed" class="box-sm"/><text x="235" y="218" text-anchor="middle" class="label-white">EmotionAnalyzer</text><rect x="370" y="200" width="110" height="28" fill="#7c3aed" class="box-sm"/><text x="425" y="218" text-anchor="middle" class="label-white">Reminder</text><rect x="490" y="200" width="110" height="28" fill="#7c3aed" class="box-sm"/><text x="545" y="218" text-anchor="middle" class="label-white">apiService</text><rect x="610" y="200" width="110" height="28" fill="#7c3aed" class="box-sm"/><text x="665" y="218" text-anchor="middle" class="label-white">backupService</text><text x="350" y="260" text-anchor="middle" class="label-sm">demoData | statisticalAnalyzer</text><line x1="200" y1="280" x2="200" y2="310" stroke="#22c55e" stroke-width="1.5" marker-end="url(#arrow-green)"/><rect x="80" y="310" width="240" height="60" fill="#22c55e" class="box"/><text x="200" y="336" text-anchor="middle" class="label-white">LocalStorage</text><text x="200" y="356" text-anchor="middle" class="label-sm">AES-256-GCM 加密</text><line x1="500" y1="280" x2="500" y2="310" stroke="#a855f7" stroke-width="1.5" marker-end="url(#arrow-purple)"/><rect x="360" y="310" width="280" height="60" fill="#f97316" class="box"/><text x="500" y="336" text-anchor="middle" class="label-white">Workers AI 代理 / OpenAI API</text><text x="500" y="356" text-anchor="middle" class="label-sm">边缘计算 · KV 存储</text><rect x="30" y="400" width="640" height="50" fill="#0ea5e9" class="box"/><text x="350" y="430" text-anchor="middle" class="label-white">PWA: Service Worker (SWR 缓存) + Web App Manifest</text></svg>
