<svg xmlns="http://www.w3.org/2000/svg" viewBox="0 0 700 420" width="700" height="420" id="use-case">
<defs>
  <filter id="shadow" x="-4%" y="-4%" width="108%" height="112%">
    <feDropShadow dx="0" dy="2" stdDeviation="3" flood-opacity="0.08"/>
  </filter>
  <marker id="arrow" viewBox="0 0 10 10" refX="9" refY="5" markerWidth="8" markerHeight="8" orient="auto-start-reverse">
    <path d="M 0 0 L 10 5 L 0 10 z" fill="#64748b"/>
  </marker>
  <marker id="arrow-indigo" viewBox="0 0 10 10" refX="9" refY="5" markerWidth="8" markerHeight="8" orient="auto-start-reverse">
    <path d="M 0 0 L 10 5 L 0 10 z" fill="#6366f1"/>
  </marker>
  <marker id="arrow-green" viewBox="0 0 10 10" refX="9" refY="5" markerWidth="8" markerHeight="8" orient="auto-start-reverse">
    <path d="M 0 0 L 10 5 L 0 10 z" fill="#22c55e"/>
  </marker>
  <marker id="arrow-purple" viewBox="0 0 10 10" refX="9" refY="5" markerWidth="8" markerHeight="8" orient="auto-start-reverse">
    <path d="M 0 0 L 10 5 L 0 10 z" fill="#a855f7"/>
  </marker>
</defs>
<style>
  text { font-family: -apple-system, 'Segoe UI', 'Noto Sans SC', sans-serif; }
  .title { font-size: 13px; font-weight: 600; fill: #ffffff; }
  .label { font-size: 11px; font-weight: 500; fill: #1e293b; }
  .label-sm { font-size: 10px; fill: #64748b; }
  .label-white { font-size: 11px; font-weight: 500; fill: #ffffff; }
  .box { rx: 10; ry: 10; filter: url(#shadow); }
  .box-sm { rx: 8; ry: 8; filter: url(#shadow); }
  .section-title { font-size: 14px; font-weight: 700; fill: #1e293b; }
</style>
<text x="350" y="24" text-anchor="middle" class="section-title">用例图</text><circle cx="80" cy="210" r="25" fill="#6366f1" filter="url(#shadow)"/><text x="80" y="214" text-anchor="middle" class="label-white">👤</text><text x="80" y="255" text-anchor="middle" class="label">用户</text><line x1="80" y1="235" x2="80" y2="270" stroke="#6366f1" stroke-width="3"/><line x1="60" y1="250" x2="100" y2="250" stroke="#6366f1" stroke-width="3"/><line x1="80" y1="270" x2="65" y2="295" stroke="#6366f1" stroke-width="3"/><line x1="80" y1="270" x2="95" y2="295" stroke="#6366f1" stroke-width="3"/><ellipse cx="400" cy="60" rx="130" ry="24" fill="#f0f9ff" stroke="#0ea5e9" stroke-width="2" filter="url(#shadow)"/><text x="400" y="65" text-anchor="middle" class="label">记录今日心情</text><line x1="105" y1="210" x2="270" y2="60" stroke="#94a3b8" stroke-width="1.5" stroke-dasharray="4"/><ellipse cx="400" cy="120" rx="130" ry="24" fill="#f0f9ff" stroke="#0ea5e9" stroke-width="2" filter="url(#shadow)"/><text x="400" y="125" text-anchor="middle" class="label">查看情绪热力图</text><line x1="105" y1="210" x2="270" y2="120" stroke="#94a3b8" stroke-width="1.5" stroke-dasharray="4"/><ellipse cx="400" cy="180" rx="130" ry="24" fill="#f0f9ff" stroke="#0ea5e9" stroke-width="2" filter="url(#shadow)"/><text x="400" y="185" text-anchor="middle" class="label">查看情绪统计</text><line x1="105" y1="210" x2="270" y2="180" stroke="#94a3b8" stroke-width="1.5" stroke-dasharray="4"/><ellipse cx="400" cy="240" rx="130" ry="24" fill="#f0f9ff" stroke="#0ea5e9" stroke-width="2" filter="url(#shadow)"/><text x="400" y="245" text-anchor="middle" class="label">浏览历史记录</text><line x1="105" y1="210" x2="270" y2="240" stroke="#94a3b8" stroke-width="1.5" stroke-dasharray="4"/><ellipse cx="400" cy="300" rx="130" ry="24" fill="#f0f9ff" stroke="#0ea5e9" stroke-width="2" filter="url(#shadow)"/><text x="400" y="305" text-anchor="middle" class="label">设置 AI 分析</text><line x1="105" y1="210" x2="270" y2="300" stroke="#94a3b8" stroke-width="1.5" stroke-dasharray="4"/><ellipse cx="400" cy="360" rx="130" ry="24" fill="#f0f9ff" stroke="#0ea5e9" stroke-width="2" filter="url(#shadow)"/><text x="400" y="365" text-anchor="middle" class="label">导出/导入数据</text><line x1="105" y1="210" x2="270" y2="360" stroke="#94a3b8" stroke-width="1.5" stroke-dasharray="4"/><ellipse cx="580" cy="120" rx="110" ry="24" fill="#f0fdf4" stroke="#22c55e" stroke-width="2" filter="url(#shadow)"/><text x="580" y="125" text-anchor="middle" class="label">获取心理健康建议</text><line x1="105" y1="210" x2="470" y2="120" stroke="#94a3b8" stroke-width="1.5" stroke-dasharray="4"/><ellipse cx="580" cy="200" rx="110" ry="24" fill="#f0fdf4" stroke="#22c55e" stroke-width="2" filter="url(#shadow)"/><text x="580" y="205" text-anchor="middle" class="label">设置每日提醒</text><line x1="105" y1="210" x2="470" y2="200" stroke="#94a3b8" stroke-width="1.5" stroke-dasharray="4"/><ellipse cx="580" cy="280" rx="110" ry="24" fill="#f0fdf4" stroke="#22c55e" stroke-width="2" filter="url(#shadow)"/><text x="580" y="285" text-anchor="middle" class="label">查看年度报告</text><line x1="105" y1="210" x2="470" y2="280" stroke="#94a3b8" stroke-width="1.5" stroke-dasharray="4"/><ellipse cx="580" cy="360" rx="110" ry="24" fill="#f0fdf4" stroke="#22c55e" stroke-width="2" filter="url(#shadow)"/><text x="580" y="365" text-anchor="middle" class="label">匿名群体统计</text><line x1="105" y1="210" x2="470" y2="360" stroke="#94a3b8" stroke-width="1.5" stroke-dasharray="4"/></svg>
